<mxfile host="app.diagrams.net" agent="Mozilla/5.0 (Windows NT 10.0; Win64; x64) AppleWebKit/537.36 (KHTML, like Gecko) Chrome/133.0.0.0 Safari/537.36" version="26.0.16">
  <diagram name="Page-1" id="e3a06f82-3646-2815-327d-82caf3d4e204">
    <mxGraphModel dx="2072" dy="1097" grid="1" gridSize="10" guides="1" tooltips="1" connect="1" arrows="1" fold="1" page="1" pageScale="1.5" pageWidth="1169" pageHeight="826" background="none" math="0" shadow="0">
      <root>
        <mxCell id="0" style=";html=1;" />
        <mxCell id="1" style=";html=1;" parent="0" />
        <mxCell id="AYJ0_D_Nq0JTmXtApnBk-24" style="edgeStyle=orthogonalEdgeStyle;rounded=0;orthogonalLoop=1;jettySize=auto;html=1;exitX=0.5;exitY=0;exitDx=0;exitDy=0;entryX=0.457;entryY=1.012;entryDx=0;entryDy=0;entryPerimeter=0;" edge="1" parent="1">
          <mxGeometry relative="1" as="geometry">
            <mxPoint x="565.5439999999999" y="552.998" as="targetPoint" />
            <mxPoint x="582" y="681" as="sourcePoint" />
          </mxGeometry>
        </mxCell>
        <mxCell id="AYJ0_D_Nq0JTmXtApnBk-18" value="Home Services" style="whiteSpace=wrap;html=1;fillColor=#d5e8d4;fontSize=14;strokeColor=#82b366;verticalAlign=top;" vertex="1" parent="1">
          <mxGeometry x="450" y="680" width="260" height="440" as="geometry" />
        </mxCell>
        <mxCell id="6a7d8f32e03d9370-58" value="Internet of Things (IOT) Devices" style="whiteSpace=wrap;html=1;fillColor=#dae8fc;fontSize=14;strokeColor=none;verticalAlign=top;" parent="1" vertex="1">
          <mxGeometry x="110" y="680" width="260" height="440" as="geometry" />
        </mxCell>
        <mxCell id="6a7d8f32e03d9370-4" value="Client" style="verticalLabelPosition=bottom;aspect=fixed;html=1;verticalAlign=top;strokeColor=none;shape=mxgraph.citrix.desktop;fillColor=#66B2FF;gradientColor=#0066CC;fontSize=14;" parent="1" vertex="1">
          <mxGeometry x="536.62" y="723.5" width="61.76" height="68" as="geometry" />
        </mxCell>
        <mxCell id="6a7d8f32e03d9370-6" value="Phone" style="verticalLabelPosition=bottom;aspect=fixed;html=1;verticalAlign=top;strokeColor=none;shape=mxgraph.citrix.pda;fillColor=#66B2FF;gradientColor=#0066CC;fontSize=14;" parent="1" vertex="1">
          <mxGeometry x="1470" y="710" width="30" height="61" as="geometry" />
        </mxCell>
        <mxCell id="6a7d8f32e03d9370-13" value="" style="verticalLabelPosition=bottom;aspect=fixed;html=1;verticalAlign=top;strokeColor=none;shape=mxgraph.citrix.router;fillColor=#66B2FF;gradientColor=#0066CC;fontSize=14;" parent="1" vertex="1">
          <mxGeometry x="680" y="300" width="55" height="36.5" as="geometry" />
        </mxCell>
        <mxCell id="6a7d8f32e03d9370-17" value="" style="verticalLabelPosition=bottom;aspect=fixed;html=1;verticalAlign=top;strokeColor=none;shape=mxgraph.citrix.firewall;fillColor=#66B2FF;gradientColor=#0066CC;fontSize=14;" parent="1" vertex="1">
          <mxGeometry x="202.5" y="551.5" width="75" height="93" as="geometry" />
        </mxCell>
        <mxCell id="6a7d8f32e03d9370-26" value="" style="verticalLabelPosition=bottom;aspect=fixed;html=1;verticalAlign=top;strokeColor=none;shape=mxgraph.citrix.switch;fillColor=#66B2FF;gradientColor=#0066CC;fontSize=14;" parent="1" vertex="1">
          <mxGeometry x="521.5" y="510" width="92" height="41.5" as="geometry" />
        </mxCell>
        <mxCell id="6a7d8f32e03d9370-62" value="Bat Cave (DarkKnight)" style="text;strokeColor=none;fillColor=none;html=1;fontSize=24;fontStyle=1;verticalAlign=middle;align=center;" parent="1" vertex="1">
          <mxGeometry x="499" y="30" width="861" height="40" as="geometry" />
        </mxCell>
        <mxCell id="AYJ0_D_Nq0JTmXtApnBk-3" value="File Share" style="shadow=0;dashed=0;html=1;strokeColor=none;fillColor=#4495D1;labelPosition=center;verticalLabelPosition=bottom;verticalAlign=top;align=center;outlineConnect=0;shape=mxgraph.veeam.vm_linux;" vertex="1" parent="1">
          <mxGeometry x="588" y="856" width="57.2" height="55.2" as="geometry" />
        </mxCell>
        <mxCell id="AYJ0_D_Nq0JTmXtApnBk-4" value="DNS Server" style="shadow=0;dashed=0;html=1;strokeColor=none;fillColor=#4495D1;labelPosition=center;verticalLabelPosition=bottom;verticalAlign=top;align=center;outlineConnect=0;shape=mxgraph.veeam.vm_windows;" vertex="1" parent="1">
          <mxGeometry x="490" y="860" width="57.2" height="55.2" as="geometry" />
        </mxCell>
        <mxCell id="AYJ0_D_Nq0JTmXtApnBk-6" value="Lightbulb" style="sketch=0;outlineConnect=0;fontColor=#232F3E;gradientColor=none;strokeColor=#232F3E;fillColor=#ffffff;dashed=0;verticalLabelPosition=bottom;verticalAlign=top;align=center;html=1;fontSize=12;fontStyle=0;aspect=fixed;shape=mxgraph.aws4.resourceIcon;resIcon=mxgraph.aws4.lightbulb;" vertex="1" parent="1">
          <mxGeometry x="250" y="730" width="60" height="60" as="geometry" />
        </mxCell>
        <mxCell id="AYJ0_D_Nq0JTmXtApnBk-7" value="Lightbulb" style="sketch=0;outlineConnect=0;fontColor=#232F3E;gradientColor=none;strokeColor=#232F3E;fillColor=#ffffff;dashed=0;verticalLabelPosition=bottom;verticalAlign=top;align=center;html=1;fontSize=12;fontStyle=0;aspect=fixed;shape=mxgraph.aws4.resourceIcon;resIcon=mxgraph.aws4.lightbulb;" vertex="1" parent="1">
          <mxGeometry x="179" y="730" width="60" height="60" as="geometry" />
        </mxCell>
        <mxCell id="AYJ0_D_Nq0JTmXtApnBk-8" value="Lightbulb" style="sketch=0;outlineConnect=0;fontColor=#232F3E;gradientColor=none;strokeColor=#232F3E;fillColor=#ffffff;dashed=0;verticalLabelPosition=bottom;verticalAlign=top;align=center;html=1;fontSize=12;fontStyle=0;aspect=fixed;shape=mxgraph.aws4.resourceIcon;resIcon=mxgraph.aws4.lightbulb;" vertex="1" parent="1">
          <mxGeometry x="250" y="890" width="60" height="60" as="geometry" />
        </mxCell>
        <mxCell id="AYJ0_D_Nq0JTmXtApnBk-9" value="Lightbulb" style="sketch=0;outlineConnect=0;fontColor=#232F3E;gradientColor=none;strokeColor=#232F3E;fillColor=#ffffff;dashed=0;verticalLabelPosition=bottom;verticalAlign=top;align=center;html=1;fontSize=12;fontStyle=0;aspect=fixed;shape=mxgraph.aws4.resourceIcon;resIcon=mxgraph.aws4.lightbulb;" vertex="1" parent="1">
          <mxGeometry x="179" y="890" width="60" height="60" as="geometry" />
        </mxCell>
        <mxCell id="AYJ0_D_Nq0JTmXtApnBk-10" value="Lightbulb" style="sketch=0;outlineConnect=0;fontColor=#232F3E;gradientColor=none;strokeColor=#232F3E;fillColor=#ffffff;dashed=0;verticalLabelPosition=bottom;verticalAlign=top;align=center;html=1;fontSize=12;fontStyle=0;aspect=fixed;shape=mxgraph.aws4.resourceIcon;resIcon=mxgraph.aws4.lightbulb;" vertex="1" parent="1">
          <mxGeometry x="250" y="810" width="60" height="60" as="geometry" />
        </mxCell>
        <mxCell id="AYJ0_D_Nq0JTmXtApnBk-11" value="Lightbulb" style="sketch=0;outlineConnect=0;fontColor=#232F3E;gradientColor=none;strokeColor=#232F3E;fillColor=#ffffff;dashed=0;verticalLabelPosition=bottom;verticalAlign=top;align=center;html=1;fontSize=12;fontStyle=0;aspect=fixed;shape=mxgraph.aws4.resourceIcon;resIcon=mxgraph.aws4.lightbulb;" vertex="1" parent="1">
          <mxGeometry x="179" y="810" width="60" height="60" as="geometry" />
        </mxCell>
        <mxCell id="AYJ0_D_Nq0JTmXtApnBk-15" value="&lt;span&gt;Security Cam&lt;/span&gt;" style="shape=image;html=1;verticalAlign=top;verticalLabelPosition=bottom;labelBackgroundColor=none;imageAspect=0;aspect=fixed;image=https://cdn0.iconfinder.com/data/icons/security-double-color-red-and-black-vol-1/52/camera__capture__device__technology-128.png" vertex="1" parent="1">
          <mxGeometry x="180" y="975" width="63" height="63" as="geometry" />
        </mxCell>
        <mxCell id="AYJ0_D_Nq0JTmXtApnBk-25" style="edgeStyle=orthogonalEdgeStyle;rounded=0;orthogonalLoop=1;jettySize=auto;html=1;exitX=0.5;exitY=0;exitDx=0;exitDy=0;" edge="1" parent="1">
          <mxGeometry relative="1" as="geometry">
            <mxPoint x="566" y="559" as="targetPoint" />
            <mxPoint x="940" y="718" as="sourcePoint" />
            <Array as="points">
              <mxPoint x="940" y="559" />
              <mxPoint x="581" y="559" />
              <mxPoint x="581" y="589" />
            </Array>
          </mxGeometry>
        </mxCell>
        <mxCell id="AYJ0_D_Nq0JTmXtApnBk-17" value="Pentest Range" style="whiteSpace=wrap;html=1;fillColor=#a20025;fontSize=14;strokeColor=#6F0000;verticalAlign=top;fontColor=#ffffff;" vertex="1" parent="1">
          <mxGeometry x="810" y="680" width="260" height="440" as="geometry" />
        </mxCell>
        <mxCell id="6a7d8f32e03d9370-1" value="Kali Laptop" style="verticalLabelPosition=bottom;aspect=fixed;html=1;verticalAlign=top;strokeColor=none;shape=mxgraph.citrix.laptop_2;fillColor=#66B2FF;gradientColor=#0066CC;fontSize=14;" parent="1" vertex="1">
          <mxGeometry x="902.11" y="750" width="75.77" height="56.5" as="geometry" />
        </mxCell>
        <mxCell id="AYJ0_D_Nq0JTmXtApnBk-20" value="Smart TV" style="sketch=0;pointerEvents=1;shadow=0;dashed=0;html=1;strokeColor=none;fillColor=#1A1A1A;labelPosition=center;verticalLabelPosition=bottom;verticalAlign=top;outlineConnect=0;align=center;shape=mxgraph.office.devices.tv;" vertex="1" parent="1">
          <mxGeometry x="250" y="984" width="59" height="45" as="geometry" />
        </mxCell>
        <mxCell id="AYJ0_D_Nq0JTmXtApnBk-23" style="edgeStyle=orthogonalEdgeStyle;rounded=0;orthogonalLoop=1;jettySize=auto;html=1;exitX=0.5;exitY=0;exitDx=0;exitDy=0;entryX=0.478;entryY=1.06;entryDx=0;entryDy=0;entryPerimeter=0;" edge="1" parent="1">
          <mxGeometry relative="1" as="geometry">
            <mxPoint x="238" y="677" as="sourcePoint" />
            <mxPoint x="563.4760000000001" y="550.99" as="targetPoint" />
          </mxGeometry>
        </mxCell>
        <mxCell id="AYJ0_D_Nq0JTmXtApnBk-26" value="" style="image;aspect=fixed;perimeter=ellipsePerimeter;html=1;align=center;shadow=0;dashed=0;spacingTop=3;image=img/lib/active_directory/internet_globe.svg;" vertex="1" parent="1">
          <mxGeometry x="788" y="140" width="50" height="50" as="geometry" />
        </mxCell>
        <mxCell id="AYJ0_D_Nq0JTmXtApnBk-28" value="Web Server" style="shadow=0;dashed=0;html=1;strokeColor=none;fillColor=#4495D1;labelPosition=center;verticalLabelPosition=bottom;verticalAlign=top;align=center;outlineConnect=0;shape=mxgraph.veeam.vm_linux;" vertex="1" parent="1">
          <mxGeometry x="490.00000000000006" y="960" width="57.2" height="55.2" as="geometry" />
        </mxCell>
        <mxCell id="AYJ0_D_Nq0JTmXtApnBk-29" value="SQL Server" style="shadow=0;dashed=0;html=1;strokeColor=none;fillColor=#4495D1;labelPosition=center;verticalLabelPosition=bottom;verticalAlign=top;align=center;outlineConnect=0;shape=mxgraph.veeam.vm_linux;" vertex="1" parent="1">
          <mxGeometry x="588" y="960" width="57.2" height="55.2" as="geometry" />
        </mxCell>
      </root>
    </mxGraphModel>
  </diagram>
</mxfile>
